<svg width="48" height="48" viewBox="0 0 48 48" fill="none" xmlns="http://www.w3.org/2000/svg">
<g clip-path="url(#clip0_217_261)">
<g clip-path="url(#clip1_217_261)">
<rect width="12" height="48" fill="#00FF3F" style="fill:#00FF3F;fill:color(display-p3 0.0000 1.0000 0.2471);fill-opacity:1;"/>
<rect x="12" width="12" height="48" fill="#35B5FF" style="fill:#35B5FF;fill:color(display-p3 0.2078 0.7098 1.0000);fill-opacity:1;"/>
<rect x="36" y="24" width="12" height="24" fill="#FFFB38" style="fill:#FFFB38;fill:color(display-p3 1.0000 0.9843 0.2196);fill-opacity:1;"/>
<path d="M24 12H36V48H24V12Z" fill="#FF479C" style="fill:#FF479C;fill:color(display-p3 1.0000 0.2784 0.6118);fill-opacity:1;"/>
<path d="M24 0L48 24H36L24 12V0Z" fill="#1E293B" style="fill:#1E293B;fill:color(display-p3 0.1176 0.1608 0.2314);fill-opacity:1;"/>
<path d="M37.136 24H28.5C26.0147 24 24 21.9853 24 19.5V10.864C24 6.85489 28.8471 4.84713 31.682 7.68197L40.318 16.318C43.1529 19.1529 41.1451 24 37.136 24Z" fill="#1E293B" style="fill:#1E293B;fill:color(display-p3 0.1176 0.1608 0.2314);fill-opacity:1;"/>
<path d="M9.0225 36.5625V43.2375C9.0225 45.87 7.4475 47.25 5.2575 47.25C3.5175 47.25 2.475 46.4925 1.905 45.795L3.12 44.2725C3.5475 44.7975 4.1925 45.2475 5.16 45.2475C6.27 45.2475 6.93 44.5575 6.93 43.0425V36.5625H9.0225Z" fill="#1E293B" style="fill:#1E293B;fill:color(display-p3 0.1176 0.1608 0.2314);fill-opacity:1;"/>
<path d="M9.675 29.2575V31.185H4.41V35.4375H2.3175V24.9375H10.0275V26.865H4.41V29.2575H9.675Z" fill="#1E293B" style="fill:#1E293B;fill:color(display-p3 0.1176 0.1608 0.2314);fill-opacity:1;"/>
<path d="M18.4275 43.2225H16.2225V47.0625H14.13V36.5625H18.4125C20.9175 36.5625 22.2525 37.8675 22.2525 39.9C22.2525 41.9175 20.9175 43.2225 18.4275 43.2225ZM18.375 38.49H16.2225V41.31H18.375C19.515 41.31 20.1075 40.845 20.1075 39.9C20.1075 38.9625 19.515 38.49 18.375 38.49Z" fill="#1E293B" style="fill:#1E293B;fill:color(display-p3 0.1176 0.1608 0.2314);fill-opacity:1;"/>
<path d="M19.17 24.9375L23.2575 35.4375H21.0225L20.1075 32.9925H15.63L14.715 35.4375H12.5325L16.62 24.9375H19.17ZM17.8725 27.0075L16.35 31.065H19.3875L17.8725 27.0075Z" fill="#1E293B" style="fill:#1E293B;fill:color(display-p3 0.1176 0.1608 0.2314);fill-opacity:1;"/>
<path d="M33.975 45.1425V47.0625H26.13V36.5625H33.915V38.4825H28.2225V40.8075H33.6525V42.7275H28.2225V45.1425H33.975Z" fill="#1E293B" style="fill:#1E293B;fill:color(display-p3 0.1176 0.1608 0.2314);fill-opacity:1;"/>
<path d="M34.0575 25.875L33.0675 27.585C32.2425 27.075 31.2375 26.6925 30.09 26.6925C28.9125 26.6925 28.08 27.1575 28.08 27.9525C28.08 28.725 28.9875 28.9575 30.2475 29.1675L30.84 29.265C32.715 29.5725 34.185 30.375 34.185 32.205C34.185 34.5225 32.145 35.625 29.8875 35.625C28.2975 35.625 26.5875 35.16 25.4625 34.2525L26.55 32.565C27.3075 33.1725 28.545 33.6975 29.895 33.6975C31.0575 33.6975 31.9575 33.24 31.9575 32.43C31.9575 31.7025 31.1925 31.4325 29.73 31.2L29.0625 31.095C27.21 30.8025 25.86 29.985 25.86 28.0875C25.86 25.8975 27.81 24.7575 30.045 24.7575C31.515 24.7575 32.7375 25.0875 34.0575 25.875Z" fill="#1E293B" style="fill:#1E293B;fill:color(display-p3 0.1176 0.1608 0.2314);fill-opacity:1;"/>
<path d="M42.2325 36.3675C43.8975 36.3675 45.285 36.9675 46.215 37.98L44.7075 39.4575C44.115 38.775 43.245 38.355 42.1725 38.355C40.2525 38.355 38.8575 39.765 38.8575 41.8125C38.8575 43.9575 40.32 45.3 42.135 45.3C43.845 45.3 44.8425 44.475 45.12 42.9825H42.45V41.235H47.28C47.3025 41.4375 47.31 41.6325 47.31 41.8275C47.31 45.0075 45.1575 47.25 42.18 47.25C39.27 47.25 36.69 45.2025 36.69 41.8125C36.69 38.64 39.0075 36.3675 42.2325 36.3675Z" fill="#1E293B" style="fill:#1E293B;fill:color(display-p3 0.1176 0.1608 0.2314);fill-opacity:1;"/>
<path d="M46.155 24.9375V26.895H42.9V35.4375H40.8075V26.895H37.5525V24.9375H46.155Z" fill="#1E293B" style="fill:#1E293B;fill:color(display-p3 0.1176 0.1608 0.2314);fill-opacity:1;"/>
</g>
</g>
<defs>
<clipPath id="clip0_217_261">
<rect width="48" height="48" fill="white" style="fill:white;fill-opacity:1;"/>
</clipPath>
<clipPath id="clip1_217_261">
<rect width="48" height="48" fill="white" style="fill:white;fill-opacity:1;"/>
</clipPath>
</defs>
</svg>
