<svg width="600" height="100" viewBox="0 0 600 100" fill="none" xmlns="http://www.w3.org/2000/svg">
<g clip-path="url(#clip0_1_56)">
<g filter="url(#filter0_d_1_56)">
<path d="M87.5 43.8H52.4V27.85H89.85V15H38.45V85H52.4V56.65H87.5V43.8Z" fill="black" style="fill:black;fill-opacity:1;"/>
</g>
<path d="M87.5 43.8H52.4V27.85H89.85V15H38.45V85H52.4V56.65H87.5V43.8Z" fill="#00FF3F" style="fill:#00FF3F;fill:color(display-p3 0.0000 1.0000 0.2471);fill-opacity:1;"/>
<g filter="url(#filter1_d_1_56)">
<path d="M139.9 15H122.9L95.65 85H110.2L116.3 68.7H146.15L152.25 85H167.15L139.9 15ZM131.25 28.8L141.35 55.85H121.1L131.25 28.8Z" fill="black" style="fill:black;fill-opacity:1;"/>
</g>
<path d="M139.9 15H122.9L95.65 85H110.2L116.3 68.7H146.15L152.25 85H167.15L139.9 15ZM131.25 28.8L141.35 55.85H121.1L131.25 28.8Z" fill="#35B5FF" style="fill:#35B5FF;fill:color(display-p3 0.2078 0.7098 1.0000);fill-opacity:1;"/>
<g filter="url(#filter2_d_1_56)">
<path d="M230.25 21.25C221.45 16 213.3 13.8 203.5 13.8C188.6 13.8 175.6 21.4 175.6 36C175.6 48.65 184.6 54.1 196.95 56.05L201.4 56.75C211.15 58.3 216.25 60.1 216.25 64.95C216.25 70.35 210.25 73.4 202.5 73.4C193.5 73.4 185.25 69.9 180.2 65.85L172.95 77.1C180.45 83.15 191.85 86.25 202.45 86.25C217.5 86.25 231.1 78.9 231.1 63.45C231.1 51.25 221.3 45.9 208.8 43.85L204.85 43.2C196.45 41.8 190.4 40.25 190.4 35.1C190.4 29.8 195.95 26.7 203.8 26.7C211.45 26.7 218.15 29.25 223.65 32.65L230.25 21.25Z" fill="black" style="fill:black;fill-opacity:1;"/>
</g>
<path d="M230.25 21.25C221.45 16 213.3 13.8 203.5 13.8C188.6 13.8 175.6 21.4 175.6 36C175.6 48.65 184.6 54.1 196.95 56.05L201.4 56.75C211.15 58.3 216.25 60.1 216.25 64.95C216.25 70.35 210.25 73.4 202.5 73.4C193.5 73.4 185.25 69.9 180.2 65.85L172.95 77.1C180.45 83.15 191.85 86.25 202.45 86.25C217.5 86.25 231.1 78.9 231.1 63.45C231.1 51.25 221.3 45.9 208.8 43.85L204.85 43.2C196.45 41.8 190.4 40.25 190.4 35.1C190.4 29.8 195.95 26.7 203.8 26.7C211.45 26.7 218.15 29.25 223.65 32.65L230.25 21.25Z" fill="#FF479C" style="fill:#FF479C;fill:color(display-p3 1.0000 0.2784 0.6118);fill-opacity:1;"/>
<g filter="url(#filter3_d_1_56)">
<path d="M294.8 15H237.45V28.05H259.15V85H273.1V28.05H294.8V15Z" fill="black" style="fill:black;fill-opacity:1;"/>
</g>
<path d="M294.8 15H237.45V28.05H259.15V85H273.1V28.05H294.8V15Z" fill="#FFFB38" style="fill:#FFFB38;fill:color(display-p3 1.0000 0.9843 0.2196);fill-opacity:1;"/>
<g filter="url(#filter4_d_1_56)">
<path d="M345.3 15H331.35V58.2C331.35 68.3 326.95 72.9 319.55 72.9C313.1 72.9 308.8 69.9 305.95 66.4L297.85 76.55C301.65 81.2 308.6 86.25 320.2 86.25C334.8 86.25 345.3 77.05 345.3 59.5V15Z" fill="black" style="fill:black;fill-opacity:1;"/>
</g>
<path d="M345.3 15H331.35V58.2C331.35 68.3 326.95 72.9 319.55 72.9C313.1 72.9 308.8 69.9 305.95 66.4L297.85 76.55C301.65 81.2 308.6 86.25 320.2 86.25C334.8 86.25 345.3 77.05 345.3 59.5V15Z" fill="white" style="fill:white;fill-opacity:1;"/>
<g filter="url(#filter5_d_1_56)">
<path d="M389.45 59.4C406.05 59.4 414.95 50.7 414.95 37.25C414.95 23.7 406.05 15 389.35 15H360.8V85H374.75V59.4H389.45ZM389.1 27.85C396.7 27.85 400.65 31 400.65 37.25C400.65 43.55 396.7 46.65 389.1 46.65H374.75V27.85H389.1Z" fill="black" style="fill:black;fill-opacity:1;"/>
</g>
<path d="M389.45 59.4C406.05 59.4 414.95 50.7 414.95 37.25C414.95 23.7 406.05 15 389.35 15H360.8V85H374.75V59.4H389.45ZM389.1 27.85C396.7 27.85 400.65 31 400.65 37.25C400.65 43.55 396.7 46.65 389.1 46.65H374.75V27.85H389.1Z" fill="white" style="fill:white;fill-opacity:1;"/>
<g filter="url(#filter6_d_1_56)">
<path d="M479.15 72.2H440.8V56.1H477V43.3H440.8V27.8H478.75V15H426.85V85H479.15V72.2Z" fill="black" style="fill:black;fill-opacity:1;"/>
</g>
<path d="M479.15 72.2H440.8V56.1H477V43.3H440.8V27.8H478.75V15H426.85V85H479.15V72.2Z" fill="white" style="fill:white;fill-opacity:1;"/>
<g filter="url(#filter7_d_1_56)">
<path d="M527.05 13.7C505.55 13.7 490.1 28.85 490.1 50C490.1 72.6 507.3 86.25 526.7 86.25C546.55 86.25 560.9 71.3 560.9 50.1C560.9 48.8 560.85 47.5 560.7 46.15H528.5V57.8H546.3C544.45 67.75 537.8 73.25 526.4 73.25C514.3 73.25 504.55 64.3 504.55 50C504.55 36.35 513.85 26.95 526.65 26.95C533.8 26.95 539.6 29.75 543.55 34.3L553.6 24.45C547.4 17.7 538.15 13.7 527.05 13.7Z" fill="black" style="fill:black;fill-opacity:1;"/>
</g>
<path d="M527.05 13.7C505.55 13.7 490.1 28.85 490.1 50C490.1 72.6 507.3 86.25 526.7 86.25C546.55 86.25 560.9 71.3 560.9 50.1C560.9 48.8 560.85 47.5 560.7 46.15H528.5V57.8H546.3C544.45 67.75 537.8 73.25 526.4 73.25C514.3 73.25 504.55 64.3 504.55 50C504.55 36.35 513.85 26.95 526.65 26.95C533.8 26.95 539.6 29.75 543.55 34.3L553.6 24.45C547.4 17.7 538.15 13.7 527.05 13.7Z" fill="white" style="fill:white;fill-opacity:1;"/>
</g>
<defs>
<filter id="filter0_d_1_56" x="18.45" y="-5.00003" width="91.4" height="110" filterUnits="userSpaceOnUse" color-interpolation-filters="sRGB">
<feFlood flood-opacity="0" result="BackgroundImageFix"/>
<feColorMatrix in="SourceAlpha" type="matrix" values="0 0 0 0 0 0 0 0 0 0 0 0 0 0 0 0 0 0 127 0" result="hardAlpha"/>
<feOffset/>
<feGaussianBlur stdDeviation="10"/>
<feColorMatrix type="matrix" values="0 0 0 0 0 0 0 0 0 1 0 0 0 0 0.247059 0 0 0 0.5 0"/>
<feBlend mode="normal" in2="BackgroundImageFix" result="effect1_dropShadow_1_56"/>
<feBlend mode="normal" in="SourceGraphic" in2="effect1_dropShadow_1_56" result="shape"/>
</filter>
<filter id="filter1_d_1_56" x="75.65" y="-5.00003" width="111.5" height="110" filterUnits="userSpaceOnUse" color-interpolation-filters="sRGB">
<feFlood flood-opacity="0" result="BackgroundImageFix"/>
<feColorMatrix in="SourceAlpha" type="matrix" values="0 0 0 0 0 0 0 0 0 0 0 0 0 0 0 0 0 0 127 0" result="hardAlpha"/>
<feOffset/>
<feGaussianBlur stdDeviation="10"/>
<feColorMatrix type="matrix" values="0 0 0 0 0.207843 0 0 0 0 0.709804 0 0 0 0 1 0 0 0 0.5 0"/>
<feBlend mode="normal" in2="BackgroundImageFix" result="effect1_dropShadow_1_56"/>
<feBlend mode="normal" in="SourceGraphic" in2="effect1_dropShadow_1_56" result="shape"/>
</filter>
<filter id="filter2_d_1_56" x="152.95" y="-6.20001" width="98.15" height="112.45" filterUnits="userSpaceOnUse" color-interpolation-filters="sRGB">
<feFlood flood-opacity="0" result="BackgroundImageFix"/>
<feColorMatrix in="SourceAlpha" type="matrix" values="0 0 0 0 0 0 0 0 0 0 0 0 0 0 0 0 0 0 127 0" result="hardAlpha"/>
<feOffset/>
<feGaussianBlur stdDeviation="10"/>
<feColorMatrix type="matrix" values="0 0 0 0 1 0 0 0 0 0.278431 0 0 0 0 0.611765 0 0 0 0.5 0"/>
<feBlend mode="normal" in2="BackgroundImageFix" result="effect1_dropShadow_1_56"/>
<feBlend mode="normal" in="SourceGraphic" in2="effect1_dropShadow_1_56" result="shape"/>
</filter>
<filter id="filter3_d_1_56" x="217.45" y="-5.00003" width="97.35" height="110" filterUnits="userSpaceOnUse" color-interpolation-filters="sRGB">
<feFlood flood-opacity="0" result="BackgroundImageFix"/>
<feColorMatrix in="SourceAlpha" type="matrix" values="0 0 0 0 0 0 0 0 0 0 0 0 0 0 0 0 0 0 127 0" result="hardAlpha"/>
<feOffset/>
<feGaussianBlur stdDeviation="10"/>
<feColorMatrix type="matrix" values="0 0 0 0 1 0 0 0 0 0.984314 0 0 0 0 0.219608 0 0 0 0.5 0"/>
<feBlend mode="normal" in2="BackgroundImageFix" result="effect1_dropShadow_1_56"/>
<feBlend mode="normal" in="SourceGraphic" in2="effect1_dropShadow_1_56" result="shape"/>
</filter>
<filter id="filter4_d_1_56" x="277.85" y="-5.00003" width="87.45" height="111.25" filterUnits="userSpaceOnUse" color-interpolation-filters="sRGB">
<feFlood flood-opacity="0" result="BackgroundImageFix"/>
<feColorMatrix in="SourceAlpha" type="matrix" values="0 0 0 0 0 0 0 0 0 0 0 0 0 0 0 0 0 0 127 0" result="hardAlpha"/>
<feOffset/>
<feGaussianBlur stdDeviation="10"/>
<feColorMatrix type="matrix" values="0 0 0 0 1 0 0 0 0 1 0 0 0 0 1 0 0 0 0.5 0"/>
<feBlend mode="normal" in2="BackgroundImageFix" result="effect1_dropShadow_1_56"/>
<feBlend mode="normal" in="SourceGraphic" in2="effect1_dropShadow_1_56" result="shape"/>
</filter>
<filter id="filter5_d_1_56" x="340.8" y="-5.00003" width="94.15" height="110" filterUnits="userSpaceOnUse" color-interpolation-filters="sRGB">
<feFlood flood-opacity="0" result="BackgroundImageFix"/>
<feColorMatrix in="SourceAlpha" type="matrix" values="0 0 0 0 0 0 0 0 0 0 0 0 0 0 0 0 0 0 127 0" result="hardAlpha"/>
<feOffset/>
<feGaussianBlur stdDeviation="10"/>
<feColorMatrix type="matrix" values="0 0 0 0 1 0 0 0 0 1 0 0 0 0 1 0 0 0 0.5 0"/>
<feBlend mode="normal" in2="BackgroundImageFix" result="effect1_dropShadow_1_56"/>
<feBlend mode="normal" in="SourceGraphic" in2="effect1_dropShadow_1_56" result="shape"/>
</filter>
<filter id="filter6_d_1_56" x="406.85" y="-5.00003" width="92.3" height="110" filterUnits="userSpaceOnUse" color-interpolation-filters="sRGB">
<feFlood flood-opacity="0" result="BackgroundImageFix"/>
<feColorMatrix in="SourceAlpha" type="matrix" values="0 0 0 0 0 0 0 0 0 0 0 0 0 0 0 0 0 0 127 0" result="hardAlpha"/>
<feOffset/>
<feGaussianBlur stdDeviation="10"/>
<feColorMatrix type="matrix" values="0 0 0 0 1 0 0 0 0 1 0 0 0 0 1 0 0 0 0.5 0"/>
<feBlend mode="normal" in2="BackgroundImageFix" result="effect1_dropShadow_1_56"/>
<feBlend mode="normal" in="SourceGraphic" in2="effect1_dropShadow_1_56" result="shape"/>
</filter>
<filter id="filter7_d_1_56" x="470.1" y="-6.30002" width="110.8" height="112.55" filterUnits="userSpaceOnUse" color-interpolation-filters="sRGB">
<feFlood flood-opacity="0" result="BackgroundImageFix"/>
<feColorMatrix in="SourceAlpha" type="matrix" values="0 0 0 0 0 0 0 0 0 0 0 0 0 0 0 0 0 0 127 0" result="hardAlpha"/>
<feOffset/>
<feGaussianBlur stdDeviation="10"/>
<feColorMatrix type="matrix" values="0 0 0 0 1 0 0 0 0 1 0 0 0 0 1 0 0 0 0.5 0"/>
<feBlend mode="normal" in2="BackgroundImageFix" result="effect1_dropShadow_1_56"/>
<feBlend mode="normal" in="SourceGraphic" in2="effect1_dropShadow_1_56" result="shape"/>
</filter>
<clipPath id="clip0_1_56">
<rect width="600" height="100" fill="white" style="fill:white;fill-opacity:1;"/>
</clipPath>
</defs>
</svg>
