<svg width="286" height="48" viewBox="0 0 286 48" fill="none" xmlns="http://www.w3.org/2000/svg">
<g clip-path="url(#clip0_217_262)">
<g clip-path="url(#clip1_217_262)">
<g filter="url(#filter0_d_217_262)">
<path d="M42 21.0242H25.152V13.3682H43.128V7.2002H18.456V40.8002H25.152V27.1922H42V21.0242Z" fill="black" style="fill:black;fill-opacity:1;"/>
</g>
<path d="M42 21.0242H25.152V13.3682H43.128V7.2002H18.456V40.8002H25.152V27.1922H42V21.0242Z" fill="#00FF3F" style="fill:#00FF3F;fill:color(display-p3 0.0000 1.0000 0.2471);fill-opacity:1;"/>
<g filter="url(#filter1_d_217_262)">
<path d="M67.152 7.2002H58.992L45.912 40.8002H52.896L55.824 32.9762H70.152L73.08 40.8002H80.232L67.152 7.2002ZM63 13.8242L67.848 26.8082H58.128L63 13.8242Z" fill="black" style="fill:black;fill-opacity:1;"/>
</g>
<path d="M67.152 7.2002H58.992L45.912 40.8002H52.896L55.824 32.9762H70.152L73.08 40.8002H80.232L67.152 7.2002ZM63 13.8242L67.848 26.8082H58.128L63 13.8242Z" fill="#35B5FF" style="fill:#35B5FF;fill:color(display-p3 0.2078 0.7098 1.0000);fill-opacity:1;"/>
<g filter="url(#filter2_d_217_262)">
<path d="M110.52 10.2C106.296 7.68002 102.384 6.62402 97.68 6.62402C90.528 6.62402 84.288 10.272 84.288 17.28C84.288 23.352 88.608 25.968 94.536 26.904L96.672 27.24C101.352 27.984 103.8 28.848 103.8 31.176C103.8 33.768 100.92 35.232 97.2 35.232C92.88 35.232 88.92 33.552 86.496 31.608L83.016 37.008C86.616 39.912 92.088 41.4 97.176 41.4C104.4 41.4 110.928 37.872 110.928 30.456C110.928 24.6 106.224 22.032 100.224 21.048L98.328 20.736C94.296 20.064 91.392 19.32 91.392 16.848C91.392 14.304 94.056 12.816 97.824 12.816C101.496 12.816 104.712 14.04 107.352 15.672L110.52 10.2Z" fill="black" style="fill:black;fill-opacity:1;"/>
</g>
<path d="M110.52 10.2C106.296 7.68002 102.384 6.62402 97.68 6.62402C90.528 6.62402 84.288 10.272 84.288 17.28C84.288 23.352 88.608 25.968 94.536 26.904L96.672 27.24C101.352 27.984 103.8 28.848 103.8 31.176C103.8 33.768 100.92 35.232 97.2 35.232C92.88 35.232 88.92 33.552 86.496 31.608L83.016 37.008C86.616 39.912 92.088 41.4 97.176 41.4C104.4 41.4 110.928 37.872 110.928 30.456C110.928 24.6 106.224 22.032 100.224 21.048L98.328 20.736C94.296 20.064 91.392 19.32 91.392 16.848C91.392 14.304 94.056 12.816 97.824 12.816C101.496 12.816 104.712 14.04 107.352 15.672L110.52 10.2Z" fill="#FF479C" style="fill:#FF479C;fill:color(display-p3 1.0000 0.2784 0.6118);fill-opacity:1;"/>
<g filter="url(#filter3_d_217_262)">
<path d="M141.504 7.2002H113.976V13.4642H124.392V40.8002H131.088V13.4642H141.504V7.2002Z" fill="black" style="fill:black;fill-opacity:1;"/>
</g>
<path d="M141.504 7.2002H113.976V13.4642H124.392V40.8002H131.088V13.4642H141.504V7.2002Z" fill="#FFFB38" style="fill:#FFFB38;fill:color(display-p3 1.0000 0.9843 0.2196);fill-opacity:1;"/>
<g filter="url(#filter4_d_217_262)">
<path d="M165.744 7.2002H159.048V27.9362C159.048 32.7842 156.936 34.9922 153.384 34.9922C150.288 34.9922 148.224 33.5522 146.856 31.8722L142.968 36.7442C144.792 38.9762 148.128 41.4002 153.696 41.4002C160.704 41.4002 165.744 36.9842 165.744 28.5602V7.2002Z" fill="black" style="fill:black;fill-opacity:1;"/>
</g>
<path d="M165.744 7.2002H159.048V27.9362C159.048 32.7842 156.936 34.9922 153.384 34.9922C150.288 34.9922 148.224 33.5522 146.856 31.8722L142.968 36.7442C144.792 38.9762 148.128 41.4002 153.696 41.4002C160.704 41.4002 165.744 36.9842 165.744 28.5602V7.2002Z" fill="white" style="fill:white;fill-opacity:1;"/>
<g filter="url(#filter5_d_217_262)">
<path d="M186.936 28.5122C194.904 28.5122 199.176 24.3362 199.176 17.8802C199.176 11.3762 194.904 7.2002 186.888 7.2002H173.184V40.8002H179.88V28.5122H186.936ZM186.768 13.3682C190.416 13.3682 192.312 14.8802 192.312 17.8802C192.312 20.9042 190.416 22.3922 186.768 22.3922H179.88V13.3682H186.768Z" fill="black" style="fill:black;fill-opacity:1;"/>
</g>
<path d="M186.936 28.5122C194.904 28.5122 199.176 24.3362 199.176 17.8802C199.176 11.3762 194.904 7.2002 186.888 7.2002H173.184V40.8002H179.88V28.5122H186.936ZM186.768 13.3682C190.416 13.3682 192.312 14.8802 192.312 17.8802C192.312 20.9042 190.416 22.3922 186.768 22.3922H179.88V13.3682H186.768Z" fill="white" style="fill:white;fill-opacity:1;"/>
<g filter="url(#filter6_d_217_262)">
<path d="M229.992 34.6562H211.584V26.9282H228.96V20.7842H211.584V13.3442H229.8V7.2002H204.888V40.8002H229.992V34.6562Z" fill="black" style="fill:black;fill-opacity:1;"/>
</g>
<path d="M229.992 34.6562H211.584V26.9282H228.96V20.7842H211.584V13.3442H229.8V7.2002H204.888V40.8002H229.992V34.6562Z" fill="white" style="fill:white;fill-opacity:1;"/>
<g filter="url(#filter7_d_217_262)">
<path d="M252.984 6.57617C242.664 6.57617 235.248 13.8482 235.248 24.0002C235.248 34.8482 243.504 41.4002 252.816 41.4002C262.344 41.4002 269.232 34.2242 269.232 24.0482C269.232 23.4242 269.208 22.8002 269.136 22.1522H253.68V27.7442H262.224C261.336 32.5202 258.144 35.1602 252.672 35.1602C246.864 35.1602 242.184 30.8642 242.184 24.0002C242.184 17.4482 246.648 12.9362 252.792 12.9362C256.224 12.9362 259.008 14.2802 260.904 16.4642L265.728 11.7362C262.752 8.49617 258.312 6.57617 252.984 6.57617Z" fill="black" style="fill:black;fill-opacity:1;"/>
</g>
<path d="M252.984 6.57617C242.664 6.57617 235.248 13.8482 235.248 24.0002C235.248 34.8482 243.504 41.4002 252.816 41.4002C262.344 41.4002 269.232 34.2242 269.232 24.0482C269.232 23.4242 269.208 22.8002 269.136 22.1522H253.68V27.7442H262.224C261.336 32.5202 258.144 35.1602 252.672 35.1602C246.864 35.1602 242.184 30.8642 242.184 24.0002C242.184 17.4482 246.648 12.9362 252.792 12.9362C256.224 12.9362 259.008 14.2802 260.904 16.4642L265.728 11.7362C262.752 8.49617 258.312 6.57617 252.984 6.57617Z" fill="white" style="fill:white;fill-opacity:1;"/>
</g>
</g>
<defs>
<filter id="filter0_d_217_262" x="8.85599" y="-2.3998" width="43.872" height="52.7996" filterUnits="userSpaceOnUse" color-interpolation-filters="sRGB">
<feFlood flood-opacity="0" result="BackgroundImageFix"/>
<feColorMatrix in="SourceAlpha" type="matrix" values="0 0 0 0 0 0 0 0 0 0 0 0 0 0 0 0 0 0 127 0" result="hardAlpha"/>
<feOffset/>
<feGaussianBlur stdDeviation="4.8"/>
<feColorMatrix type="matrix" values="0 0 0 0 0 0 0 0 0 1 0 0 0 0 0.247059 0 0 0 0.5 0"/>
<feBlend mode="normal" in2="BackgroundImageFix" result="effect1_dropShadow_217_262"/>
<feBlend mode="normal" in="SourceGraphic" in2="effect1_dropShadow_217_262" result="shape"/>
</filter>
<filter id="filter1_d_217_262" x="36.312" y="-2.3998" width="53.52" height="52.7996" filterUnits="userSpaceOnUse" color-interpolation-filters="sRGB">
<feFlood flood-opacity="0" result="BackgroundImageFix"/>
<feColorMatrix in="SourceAlpha" type="matrix" values="0 0 0 0 0 0 0 0 0 0 0 0 0 0 0 0 0 0 127 0" result="hardAlpha"/>
<feOffset/>
<feGaussianBlur stdDeviation="4.8"/>
<feColorMatrix type="matrix" values="0 0 0 0 0.207843 0 0 0 0 0.709804 0 0 0 0 1 0 0 0 0.5 0"/>
<feBlend mode="normal" in2="BackgroundImageFix" result="effect1_dropShadow_217_262"/>
<feBlend mode="normal" in="SourceGraphic" in2="effect1_dropShadow_217_262" result="shape"/>
</filter>
<filter id="filter2_d_217_262" x="73.416" y="-2.97598" width="47.112" height="53.9764" filterUnits="userSpaceOnUse" color-interpolation-filters="sRGB">
<feFlood flood-opacity="0" result="BackgroundImageFix"/>
<feColorMatrix in="SourceAlpha" type="matrix" values="0 0 0 0 0 0 0 0 0 0 0 0 0 0 0 0 0 0 127 0" result="hardAlpha"/>
<feOffset/>
<feGaussianBlur stdDeviation="4.8"/>
<feColorMatrix type="matrix" values="0 0 0 0 1 0 0 0 0 0.278431 0 0 0 0 0.611765 0 0 0 0.5 0"/>
<feBlend mode="normal" in2="BackgroundImageFix" result="effect1_dropShadow_217_262"/>
<feBlend mode="normal" in="SourceGraphic" in2="effect1_dropShadow_217_262" result="shape"/>
</filter>
<filter id="filter3_d_217_262" x="104.376" y="-2.3998" width="46.728" height="52.7996" filterUnits="userSpaceOnUse" color-interpolation-filters="sRGB">
<feFlood flood-opacity="0" result="BackgroundImageFix"/>
<feColorMatrix in="SourceAlpha" type="matrix" values="0 0 0 0 0 0 0 0 0 0 0 0 0 0 0 0 0 0 127 0" result="hardAlpha"/>
<feOffset/>
<feGaussianBlur stdDeviation="4.8"/>
<feColorMatrix type="matrix" values="0 0 0 0 1 0 0 0 0 0.984314 0 0 0 0 0.219608 0 0 0 0.5 0"/>
<feBlend mode="normal" in2="BackgroundImageFix" result="effect1_dropShadow_217_262"/>
<feBlend mode="normal" in="SourceGraphic" in2="effect1_dropShadow_217_262" result="shape"/>
</filter>
<filter id="filter4_d_217_262" x="133.368" y="-2.3998" width="41.976" height="53.4002" filterUnits="userSpaceOnUse" color-interpolation-filters="sRGB">
<feFlood flood-opacity="0" result="BackgroundImageFix"/>
<feColorMatrix in="SourceAlpha" type="matrix" values="0 0 0 0 0 0 0 0 0 0 0 0 0 0 0 0 0 0 127 0" result="hardAlpha"/>
<feOffset/>
<feGaussianBlur stdDeviation="4.8"/>
<feColorMatrix type="matrix" values="0 0 0 0 1 0 0 0 0 1 0 0 0 0 1 0 0 0 0.5 0"/>
<feBlend mode="normal" in2="BackgroundImageFix" result="effect1_dropShadow_217_262"/>
<feBlend mode="normal" in="SourceGraphic" in2="effect1_dropShadow_217_262" result="shape"/>
</filter>
<filter id="filter5_d_217_262" x="163.584" y="-2.3998" width="45.192" height="52.7996" filterUnits="userSpaceOnUse" color-interpolation-filters="sRGB">
<feFlood flood-opacity="0" result="BackgroundImageFix"/>
<feColorMatrix in="SourceAlpha" type="matrix" values="0 0 0 0 0 0 0 0 0 0 0 0 0 0 0 0 0 0 127 0" result="hardAlpha"/>
<feOffset/>
<feGaussianBlur stdDeviation="4.8"/>
<feColorMatrix type="matrix" values="0 0 0 0 1 0 0 0 0 1 0 0 0 0 1 0 0 0 0.5 0"/>
<feBlend mode="normal" in2="BackgroundImageFix" result="effect1_dropShadow_217_262"/>
<feBlend mode="normal" in="SourceGraphic" in2="effect1_dropShadow_217_262" result="shape"/>
</filter>
<filter id="filter6_d_217_262" x="195.288" y="-2.3998" width="44.304" height="52.7996" filterUnits="userSpaceOnUse" color-interpolation-filters="sRGB">
<feFlood flood-opacity="0" result="BackgroundImageFix"/>
<feColorMatrix in="SourceAlpha" type="matrix" values="0 0 0 0 0 0 0 0 0 0 0 0 0 0 0 0 0 0 127 0" result="hardAlpha"/>
<feOffset/>
<feGaussianBlur stdDeviation="4.8"/>
<feColorMatrix type="matrix" values="0 0 0 0 1 0 0 0 0 1 0 0 0 0 1 0 0 0 0.5 0"/>
<feBlend mode="normal" in2="BackgroundImageFix" result="effect1_dropShadow_217_262"/>
<feBlend mode="normal" in="SourceGraphic" in2="effect1_dropShadow_217_262" result="shape"/>
</filter>
<filter id="filter7_d_217_262" x="225.648" y="-3.02383" width="53.184" height="54.0242" filterUnits="userSpaceOnUse" color-interpolation-filters="sRGB">
<feFlood flood-opacity="0" result="BackgroundImageFix"/>
<feColorMatrix in="SourceAlpha" type="matrix" values="0 0 0 0 0 0 0 0 0 0 0 0 0 0 0 0 0 0 127 0" result="hardAlpha"/>
<feOffset/>
<feGaussianBlur stdDeviation="4.8"/>
<feColorMatrix type="matrix" values="0 0 0 0 1 0 0 0 0 1 0 0 0 0 1 0 0 0 0.5 0"/>
<feBlend mode="normal" in2="BackgroundImageFix" result="effect1_dropShadow_217_262"/>
<feBlend mode="normal" in="SourceGraphic" in2="effect1_dropShadow_217_262" result="shape"/>
</filter>
<clipPath id="clip0_217_262">
<rect width="286" height="48" fill="white" style="fill:white;fill-opacity:1;"/>
</clipPath>
<clipPath id="clip1_217_262">
<rect width="288" height="48" fill="white" style="fill:white;fill-opacity:1;"/>
</clipPath>
</defs>
</svg>
