<svg width="256" height="256" viewBox="0 0 256 256" fill="none" xmlns="http://www.w3.org/2000/svg">
<g clip-path="url(#clip0_12_8)">
<rect width="64" height="256" fill="#00FF3F" style="fill:#00FF3F;fill:color(display-p3 0.0000 1.0000 0.2471);fill-opacity:1;"/>
<rect x="64" width="64" height="256" fill="#35B5FF" style="fill:#35B5FF;fill:color(display-p3 0.2078 0.7098 1.0000);fill-opacity:1;"/>
<rect x="192" y="128" width="64" height="128" fill="#FFFB38" style="fill:#FFFB38;fill:color(display-p3 1.0000 0.9843 0.2196);fill-opacity:1;"/>
<path d="M128 64H192V256H128V64Z" fill="#FF479C" style="fill:#FF479C;fill:color(display-p3 1.0000 0.2784 0.6118);fill-opacity:1;"/>
<path d="M128 0L256 128H192L128 64V0Z" fill="#1E293B" style="fill:#1E293B;fill:color(display-p3 0.1176 0.1608 0.2314);fill-opacity:1;"/>
<path d="M198.059 128H152C138.745 128 128 117.255 128 104V57.9411C128 36.5594 153.851 25.8514 168.971 40.9705L215.029 87.0294C230.149 102.149 219.441 128 198.059 128Z" fill="#1E293B" style="fill:#1E293B;fill:color(display-p3 0.1176 0.1608 0.2314);fill-opacity:1;"/>
<path d="M48.12 196V231.6C48.12 245.64 39.72 253 28.04 253C18.76 253 13.2 248.96 10.16 245.24L16.64 237.12C18.92 239.92 22.36 242.32 27.52 242.32C33.44 242.32 36.96 238.64 36.96 230.56V196H48.12Z" fill="#1E293B" style="fill:#1E293B;fill:color(display-p3 0.1176 0.1608 0.2314);fill-opacity:1;"/>
<path d="M51.6 157.04V167.32H23.52V190H12.36V134H53.48V144.28H23.52V157.04H51.6Z" fill="#1E293B" style="fill:#1E293B;fill:color(display-p3 0.1176 0.1608 0.2314);fill-opacity:1;"/>
<path d="M98.28 231.52H86.52V252H75.36V196H98.2C111.56 196 118.68 202.96 118.68 213.8C118.68 224.56 111.56 231.52 98.28 231.52ZM98 206.28H86.52V221.32H98C104.08 221.32 107.24 218.84 107.24 213.8C107.24 208.8 104.08 206.28 98 206.28Z" fill="#1E293B" style="fill:#1E293B;fill:color(display-p3 0.1176 0.1608 0.2314);fill-opacity:1;"/>
<path d="M102.24 134L124.04 190H112.12L107.24 176.96H83.36L78.48 190H66.84L88.64 134H102.24ZM95.32 145.04L87.2 166.68H103.4L95.32 145.04Z" fill="#1E293B" style="fill:#1E293B;fill:color(display-p3 0.1176 0.1608 0.2314);fill-opacity:1;"/>
<path d="M181.2 241.76V252H139.36V196H180.88V206.24H150.52V218.64H179.48V228.88H150.52V241.76H181.2Z" fill="#1E293B" style="fill:#1E293B;fill:color(display-p3 0.1176 0.1608 0.2314);fill-opacity:1;"/>
<path d="M181.64 139L176.36 148.12C171.96 145.4 166.6 143.36 160.48 143.36C154.2 143.36 149.76 145.84 149.76 150.08C149.76 154.2 154.6 155.44 161.32 156.56L164.48 157.08C174.48 158.72 182.32 163 182.32 172.76C182.32 185.12 171.44 191 159.4 191C150.92 191 141.8 188.52 135.8 183.68L141.6 174.68C145.64 177.92 152.24 180.72 159.44 180.72C165.64 180.72 170.44 178.28 170.44 173.96C170.44 170.08 166.36 168.64 158.56 167.4L155 166.84C145.12 165.28 137.92 160.92 137.92 150.8C137.92 139.12 148.32 133.04 160.24 133.04C168.08 133.04 174.6 134.8 181.64 139Z" fill="#1E293B" style="fill:#1E293B;fill:color(display-p3 0.1176 0.1608 0.2314);fill-opacity:1;"/>
<path d="M225.24 194.96C234.12 194.96 241.52 198.16 246.48 203.56L238.44 211.44C235.28 207.8 230.64 205.56 224.92 205.56C214.68 205.56 207.24 213.08 207.24 224C207.24 235.44 215.04 242.6 224.72 242.6C233.84 242.6 239.16 238.2 240.64 230.24H226.4V220.92H252.16C252.28 222 252.32 223.04 252.32 224.08C252.32 241.04 240.84 253 224.96 253C209.44 253 195.68 242.08 195.68 224C195.68 207.08 208.04 194.96 225.24 194.96Z" fill="#1E293B" style="fill:#1E293B;fill:color(display-p3 0.1176 0.1608 0.2314);fill-opacity:1;"/>
<path d="M246.16 134V144.44H228.8V190H217.64V144.44H200.28V134H246.16Z" fill="#1E293B" style="fill:#1E293B;fill:color(display-p3 0.1176 0.1608 0.2314);fill-opacity:1;"/>
</g>
<defs>
<clipPath id="clip0_12_8">
<rect width="256" height="256" fill="white" style="fill:white;fill-opacity:1;"/>
</clipPath>
</defs>
</svg>
